<svg xmlns="http://www.w3.org/2000/svg" width="31" height="30" viewBox="0 0 31 30" fill="none">
  <g clip-path="url(#clip0_135_1222)">
    <path d="M9.21341 0.104906C7.61741 0.180206 6.52751 0.434906 5.57471 0.809306C4.58861 1.19361 3.75281 1.70931 2.92121 2.54391C2.08961 3.37851 1.57751 4.21491 1.19591 5.20251C0.826606 6.15741 0.576406 7.24821 0.505906 8.84511C0.435406 10.442 0.419806 10.9553 0.427606 15.0287C0.435406 19.1021 0.453406 19.6127 0.530806 21.2129C0.607006 22.8086 0.860806 23.8982 1.23521 24.8513C1.62011 25.8374 2.13521 26.6729 2.97011 27.5048C3.80501 28.3367 4.64081 28.8476 5.63081 29.2298C6.58481 29.5985 7.67591 29.8499 9.27251 29.9198C10.8691 29.9897 11.383 30.0059 15.4552 29.9981C19.5274 29.9903 20.0401 29.9723 21.64 29.8964C23.2399 29.8205 24.3238 29.5649 25.2772 29.1923C26.2633 28.8065 27.0994 28.2923 27.9307 27.4571C28.762 26.6219 29.2738 25.7849 29.6551 24.7967C30.0247 23.8427 30.2758 22.7516 30.3451 21.1562C30.415 19.5551 30.4315 19.0439 30.4237 14.9711C30.4159 10.8983 30.3976 10.3877 30.3217 8.78811C30.2458 7.18851 29.9917 6.10221 29.6176 5.14851C29.2321 4.16241 28.7176 3.32751 27.883 2.49501C27.0484 1.66251 26.2108 1.15101 25.2229 0.770607C24.2683 0.401306 23.1778 0.149606 21.5812 0.0806064C19.9846 0.0116064 19.4707 -0.00609358 15.397 0.00170642C11.3233 0.00950642 10.8133 0.0269064 9.21341 0.104906ZM9.38861 27.2213C7.92611 27.1577 7.13201 26.9147 6.60281 26.7113C5.90201 26.4413 5.40281 26.1149 4.87541 25.5926C4.34801 25.0703 4.02401 24.5693 3.75041 23.87C3.54491 23.3408 3.29741 22.5476 3.22901 21.0851C3.15461 19.5044 3.13901 19.0298 3.13031 15.0251C3.12161 11.0204 3.13691 10.5464 3.20621 8.96511C3.26861 7.50381 3.51311 6.70881 3.71621 6.17991C3.98621 5.47821 4.31141 4.97991 4.83491 4.45281C5.35841 3.92571 5.85791 3.60111 6.55781 3.32751C7.08641 3.12111 7.87961 2.87571 9.34151 2.80611C10.9234 2.73111 11.3974 2.71611 15.4015 2.70741C19.4056 2.69871 19.8808 2.71371 21.4633 2.78331C22.9246 2.84691 23.7199 3.08901 24.2482 3.29331C24.9493 3.56331 25.4482 3.88761 25.9753 4.41201C26.5024 4.93641 26.8273 5.43411 27.1009 6.13551C27.3076 6.66261 27.553 7.45551 27.622 8.91831C27.6973 10.5002 27.7144 10.9745 27.7216 14.9783C27.7288 18.9821 27.7147 19.4576 27.6454 21.0383C27.5815 22.5008 27.3391 23.2952 27.1354 23.825C26.8654 24.5255 26.5399 25.025 26.0161 25.5518C25.4923 26.0786 24.9934 26.4032 24.2932 26.6768C23.7652 26.8829 22.9711 27.1289 21.5104 27.1985C19.9285 27.2729 19.4545 27.2885 15.4489 27.2972C11.4433 27.3059 10.9708 27.2897 9.38891 27.2213M21.6169 6.98301C21.6175 7.33904 21.7237 7.6869 21.922 7.98259C22.1203 8.27828 22.4018 8.50852 22.731 8.64419C23.0602 8.77986 23.4222 8.81487 23.7712 8.74478C24.1203 8.6747 24.4407 8.50267 24.692 8.25046C24.9433 7.99825 25.1142 7.67718 25.183 7.32786C25.2518 6.97854 25.2154 6.61666 25.0786 6.28799C24.9417 5.95932 24.7104 5.67862 24.414 5.4814C24.1176 5.28418 23.7693 5.1793 23.4133 5.18001C22.936 5.18096 22.4787 5.37144 22.1418 5.70955C21.8049 6.04766 21.6161 6.50572 21.6169 6.98301ZM7.72391 15.0149C7.73231 19.2689 11.1871 22.7096 15.4402 22.7015C19.6933 22.6934 23.1364 19.2389 23.1283 14.9849C23.1202 10.7309 19.6645 7.28931 15.4108 7.29771C11.1571 7.30611 7.71581 10.7615 7.72391 15.0149ZM10.4257 15.0095C10.4237 14.0206 10.7151 13.0533 11.2629 12.2299C11.8107 11.4066 12.5903 10.7642 13.5032 10.3839C14.4161 10.0037 15.4213 9.90266 16.3916 10.0937C17.3619 10.2847 18.2537 10.7591 18.9544 11.457C19.6551 12.1549 20.133 13.0449 20.3279 14.0144C20.5227 14.984 20.4257 15.9895 20.0491 16.9039C19.6724 17.8183 19.0331 18.6005 18.2119 19.1515C17.3908 19.7026 16.4246 19.9977 15.4357 19.9997C14.7791 20.0011 14.1286 19.8731 13.5214 19.623C12.9142 19.373 12.3623 19.0058 11.897 18.5424C11.4318 18.079 11.0624 17.5285 10.8099 16.9223C10.5575 16.3161 10.4269 15.6662 10.4257 15.0095Z" fill="white"/>
  </g>
  <defs>
    <clipPath id="clip0_135_1222">
      <rect width="30" height="30" fill="white" transform="translate(0.425781)"/>
    </clipPath>
  </defs>
</svg>