<svg xmlns="http://www.w3.org/2000/svg" width="31" height="30" viewBox="0 0 31 30" fill="none">
<path d="M25.9792 25.3518H21.5267V18.4477C21.5267 16.8013 21.4971 14.6819 19.211 14.6819C16.892 14.6819 16.5371 16.4757 16.5371 18.3278V25.3514H12.0846V11.1536H16.359V13.0939H16.4189C16.8466 12.3697 17.4648 11.774 18.2074 11.3701C18.9501 10.9662 19.7895 10.7694 20.6362 10.8005C25.1491 10.8005 25.9811 13.7396 25.9811 17.5632L25.9792 25.3518ZM7.06071 9.21291C6.54968 9.213 6.05008 9.06304 5.62512 8.782C5.20015 8.50095 4.86893 8.10144 4.67328 7.63399C4.47763 7.16654 4.42635 6.65214 4.52596 6.15584C4.62557 5.65954 4.87158 5.20364 5.23288 4.84577C5.59417 4.48791 6.05452 4.24416 6.55572 4.14536C7.05692 4.04655 7.57645 4.09713 8.04862 4.29068C8.52079 4.48424 8.92439 4.81208 9.20838 5.23276C9.49237 5.65343 9.64401 6.14805 9.6441 6.65405C9.64416 6.99002 9.57738 7.32272 9.44759 7.63314C9.31779 7.94356 9.12754 8.22563 8.88765 8.46325C8.64776 8.70086 8.36293 8.88936 8.04947 9.01798C7.736 9.14661 7.40003 9.21285 7.06071 9.21291ZM9.28696 25.3518H4.82982V11.1536H9.28696V25.3518ZM28.199 0.00202714H2.59245C2.01125 -0.00446707 1.4512 0.217774 1.0354 0.619913C0.619612 1.02205 0.382093 1.57119 0.375 2.14666V27.6062C0.38185 28.1819 0.61923 28.7315 1.03501 29.134C1.45079 29.5366 2.01096 29.7592 2.59245 29.7531H28.199C28.7816 29.7604 29.3434 29.5383 29.7608 29.1358C30.1782 28.7332 30.4172 28.1831 30.4253 27.6062V2.14482C30.4169 1.56821 30.1778 1.01845 29.7604 0.61632C29.3429 0.21419 28.7814 -0.0074153 28.199 0.000189456" fill="white"/>
</svg>