<svg width="31" height="30" viewBox="0 0 31 30" fill="none" xmlns="http://www.w3.org/2000/svg">
<path d="M25.6042 25.3518H21.1517V18.4477C21.1517 16.8013 21.1221 14.6819 18.836 14.6819C16.517 14.6819 16.1621 16.4757 16.1621 18.3278V25.3514H11.7096V11.1536H15.984V13.0939H16.0439C16.4716 12.3697 17.0898 11.774 17.8324 11.3701C18.5751 10.9662 19.4145 10.7694 20.2612 10.8005C24.7741 10.8005 25.6061 13.7396 25.6061 17.5632L25.6042 25.3518ZM6.68571 9.21291C6.17468 9.213 5.67508 9.06304 5.25012 8.782C4.82515 8.50095 4.49393 8.10144 4.29828 7.63399C4.10263 7.16654 4.05135 6.65214 4.15096 6.15584C4.25057 5.65954 4.49658 5.20364 4.85788 4.84577C5.21917 4.48791 5.67952 4.24416 6.18072 4.14536C6.68192 4.04655 7.20145 4.09713 7.67362 4.29068C8.14579 4.48424 8.54939 4.81208 8.83338 5.23276C9.11737 5.65343 9.26901 6.14805 9.2691 6.65405C9.26916 6.99002 9.20238 7.32272 9.07259 7.63314C8.94279 7.94356 8.75254 8.22563 8.51265 8.46325C8.27276 8.70086 7.98793 8.88936 7.67447 9.01798C7.361 9.14661 7.02503 9.21285 6.68571 9.21291ZM8.91196 25.3518H4.45482V11.1536H8.91196V25.3518ZM27.824 0.00202714H2.21745C1.63625 -0.00446707 1.0762 0.217774 0.660405 0.619913C0.244612 1.02205 0.00709319 1.57119 0 2.14666V27.6062C0.00685042 28.1819 0.24423 28.7315 0.660008 29.134C1.07579 29.5366 1.63596 29.7592 2.21745 29.7531H27.824C28.4066 29.7604 28.9684 29.5383 29.3858 29.1358C29.8032 28.7332 30.0422 28.1831 30.0503 27.6062V2.14482C30.0419 1.56821 29.8028 1.01845 29.3854 0.61632C28.9679 0.21419 28.4064 -0.0074153 27.824 0.000189456" fill="black"/>
</svg>
