<svg xmlns="http://www.w3.org/2000/svg" width="44" height="30" viewBox="0 0 44 30" fill="none">
  <g clip-path="url(#clip0_135_1224)">
    <path d="M17.4196 21.3311V8.66884L28.5869 15.0003L17.4196 21.3311ZM42.2601 4.6846C41.7688 2.84056 40.3209 1.38847 38.4827 0.895647C35.1507 1.90735e-06 21.7894 0 21.7894 0C21.7894 0 8.42824 1.90735e-06 5.09614 0.895647C3.25782 1.38847 1.80994 2.84056 1.31862 4.6846C0.425781 8.02677 0.425781 15 0.425781 15C0.425781 15 0.425781 21.9731 1.31862 25.3154C1.80994 27.1594 3.25782 28.6115 5.09614 29.1046C8.42824 30 21.7894 30 21.7894 30C21.7894 30 35.1507 30 38.4827 29.1046C40.3209 28.6115 41.7688 27.1594 42.2601 25.3154C43.153 21.9731 43.1531 15 43.1531 15C43.1531 15 43.153 8.02677 42.2601 4.6846Z" fill="white"/>
  </g>
  <defs>
    <clipPath id="clip0_135_1224">
      <rect width="42.7273" height="30" fill="white" transform="translate(0.425781)"/>
    </clipPath>
  </defs>
</svg>